<mxfile host="app.diagrams.net" modified="2024-06-29T10:17:01.450Z" agent="Mozilla/5.0 (Macintosh; Intel Mac OS X 10.15; rv:127.0) Gecko/20100101 Firefox/127.0" etag="VBxKLyV6x8imUuBMHwIy" version="24.6.4" type="github">
  <diagram name="Page-1" id="efa7a0a1-bf9b-a30e-e6df-94a7791c09e9">
    <mxGraphModel dx="58" dy="2331" grid="1" gridSize="10" guides="1" tooltips="1" connect="1" arrows="1" fold="1" page="1" pageScale="1" pageWidth="826" pageHeight="1169" background="none" math="0" shadow="0">
      <root>
        <mxCell id="0" />
        <mxCell id="1" parent="0" />
        <mxCell id="mrB9wBL7-dre5j41DHhm-142" style="edgeStyle=orthogonalEdgeStyle;rounded=0;orthogonalLoop=1;jettySize=auto;html=1;dashed=1;" edge="1" parent="1" source="mrB9wBL7-dre5j41DHhm-115" target="mrB9wBL7-dre5j41DHhm-118">
          <mxGeometry relative="1" as="geometry">
            <Array as="points">
              <mxPoint x="2520" y="-340" />
              <mxPoint x="2520" y="-880" />
            </Array>
          </mxGeometry>
        </mxCell>
        <mxCell id="mrB9wBL7-dre5j41DHhm-143" value="&lt;div&gt;&lt;br&gt;&lt;/div&gt;" style="edgeLabel;html=1;align=center;verticalAlign=middle;resizable=0;points=[];fontSize=16;" vertex="1" connectable="0" parent="mrB9wBL7-dre5j41DHhm-142">
          <mxGeometry x="0.0829" y="-2" relative="1" as="geometry">
            <mxPoint x="-158" y="98" as="offset" />
          </mxGeometry>
        </mxCell>
        <mxCell id="mrB9wBL7-dre5j41DHhm-152" value="&lt;div style=&quot;font-size: 15px;&quot;&gt;Выставление инвойса&lt;/div&gt;" style="edgeLabel;html=1;align=center;verticalAlign=middle;resizable=0;points=[];" vertex="1" connectable="0" parent="mrB9wBL7-dre5j41DHhm-142">
          <mxGeometry x="-0.3498" y="-4" relative="1" as="geometry">
            <mxPoint as="offset" />
          </mxGeometry>
        </mxCell>
        <mxCell id="mrB9wBL7-dre5j41DHhm-159" value="&lt;div style=&quot;font-size: 15px;&quot;&gt;&lt;font style=&quot;font-size: 15px;&quot;&gt;Добавление новых&amp;nbsp;&lt;/font&gt;&lt;/div&gt;&lt;div style=&quot;font-size: 15px;&quot;&gt;&lt;font style=&quot;font-size: 15px;&quot;&gt;клиентов&lt;/font&gt;&lt;/div&gt;" style="edgeStyle=orthogonalEdgeStyle;rounded=0;orthogonalLoop=1;jettySize=auto;html=1;dashed=1;" edge="1" parent="1" source="mrB9wBL7-dre5j41DHhm-115" target="mrB9wBL7-dre5j41DHhm-158">
          <mxGeometry x="0.2941" relative="1" as="geometry">
            <Array as="points">
              <mxPoint x="2750" y="-200" />
            </Array>
            <mxPoint as="offset" />
          </mxGeometry>
        </mxCell>
        <mxCell id="mrB9wBL7-dre5j41DHhm-163" style="edgeStyle=orthogonalEdgeStyle;rounded=0;orthogonalLoop=1;jettySize=auto;html=1;" edge="1" parent="1" source="mrB9wBL7-dre5j41DHhm-115" target="mrB9wBL7-dre5j41DHhm-161">
          <mxGeometry relative="1" as="geometry" />
        </mxCell>
        <mxCell id="mrB9wBL7-dre5j41DHhm-164" value="Обновление числа доступных мест" style="edgeLabel;html=1;align=center;verticalAlign=middle;resizable=0;points=[];fontSize=16;" vertex="1" connectable="0" parent="mrB9wBL7-dre5j41DHhm-163">
          <mxGeometry x="0.1913" y="3" relative="1" as="geometry">
            <mxPoint x="-2" y="8" as="offset" />
          </mxGeometry>
        </mxCell>
        <mxCell id="mrB9wBL7-dre5j41DHhm-115" value="&lt;p style=&quot;margin: 0px; margin-top: 4px; text-align: center; text-decoration: underline;&quot;&gt;&lt;strong&gt;BookingService&lt;/strong&gt;&lt;/p&gt;&lt;hr&gt;&lt;p style=&quot;margin: 0px; margin-left: 8px;&quot;&gt;Создание бронирование&lt;/p&gt;&lt;p style=&quot;margin: 0px; margin-left: 8px;&quot;&gt;Создание платежного документа&lt;/p&gt;&lt;p style=&quot;margin: 0px; margin-left: 8px;&quot;&gt;Обновление статуса бронирования&lt;/p&gt;" style="verticalAlign=top;align=left;overflow=fill;fontSize=12;fontFamily=Helvetica;html=1;strokeColor=#003366;shadow=1;fillColor=#D4E1F5;fontColor=#003366" vertex="1" parent="1">
          <mxGeometry x="2560" y="-435" width="220" height="190" as="geometry" />
        </mxCell>
        <mxCell id="mrB9wBL7-dre5j41DHhm-140" style="edgeStyle=orthogonalEdgeStyle;rounded=0;orthogonalLoop=1;jettySize=auto;html=1;dashed=1;" edge="1" parent="1" source="mrB9wBL7-dre5j41DHhm-118" target="mrB9wBL7-dre5j41DHhm-123">
          <mxGeometry relative="1" as="geometry">
            <Array as="points">
              <mxPoint x="3110" y="-880" />
            </Array>
          </mxGeometry>
        </mxCell>
        <mxCell id="mrB9wBL7-dre5j41DHhm-141" value="&lt;div style=&quot;font-size: 15px;&quot;&gt;Подсчет финальной стоимости&amp;nbsp;&lt;/div&gt;&lt;div style=&quot;font-size: 15px;&quot;&gt;с учетом скидки&lt;/div&gt;" style="edgeLabel;html=1;align=center;verticalAlign=middle;resizable=0;points=[];fontSize=15;" vertex="1" connectable="0" parent="mrB9wBL7-dre5j41DHhm-140">
          <mxGeometry x="-0.4582" relative="1" as="geometry">
            <mxPoint x="34" as="offset" />
          </mxGeometry>
        </mxCell>
        <mxCell id="mrB9wBL7-dre5j41DHhm-153" style="edgeStyle=orthogonalEdgeStyle;rounded=0;orthogonalLoop=1;jettySize=auto;html=1;dashed=1;" edge="1" parent="1" source="mrB9wBL7-dre5j41DHhm-118" target="mrB9wBL7-dre5j41DHhm-119">
          <mxGeometry relative="1" as="geometry">
            <Array as="points">
              <mxPoint x="2671" y="-1010" />
            </Array>
          </mxGeometry>
        </mxCell>
        <mxCell id="mrB9wBL7-dre5j41DHhm-118" value="&lt;p style=&quot;margin: 0px; margin-top: 4px; text-align: center; text-decoration: underline;&quot;&gt;&lt;strong&gt;PaymentService&lt;/strong&gt;&lt;/p&gt;&lt;hr&gt;&lt;p style=&quot;margin: 0px; margin-left: 8px;&quot;&gt;Выставление инвойса&lt;/p&gt;&lt;p style=&quot;margin: 0px; margin-left: 8px;&quot;&gt;Обновление статуса инвойса&lt;/p&gt;&lt;p style=&quot;margin: 0px; margin-left: 8px;&quot;&gt;Поиск инвойса&lt;br&gt;&lt;/p&gt;" style="verticalAlign=top;align=left;overflow=fill;fontSize=12;fontFamily=Helvetica;html=1;strokeColor=#003366;shadow=1;fillColor=#D4E1F5;fontColor=#003366" vertex="1" parent="1">
          <mxGeometry x="2564.12" y="-950" width="213.92" height="170" as="geometry" />
        </mxCell>
        <mxCell id="mrB9wBL7-dre5j41DHhm-154" style="edgeStyle=orthogonalEdgeStyle;rounded=0;orthogonalLoop=1;jettySize=auto;html=1;dashed=1;" edge="1" parent="1" source="mrB9wBL7-dre5j41DHhm-119" target="mrB9wBL7-dre5j41DHhm-120">
          <mxGeometry relative="1" as="geometry" />
        </mxCell>
        <mxCell id="mrB9wBL7-dre5j41DHhm-119" value="&lt;p style=&quot;margin: 0px; margin-top: 4px; text-align: center; text-decoration: underline;&quot;&gt;&lt;strong&gt;PayKeeperClient&lt;br&gt;&lt;/strong&gt;&lt;/p&gt;&lt;hr&gt;&lt;p style=&quot;margin: 0px; margin-left: 8px;&quot;&gt;Cоздание инвойса&lt;/p&gt;&lt;p style=&quot;margin: 0px; margin-left: 8px;&quot;&gt;Получение инвойса&lt;br&gt;&lt;/p&gt;" style="verticalAlign=top;align=left;overflow=fill;fontSize=12;fontFamily=Helvetica;html=1;strokeColor=#003366;shadow=1;fillColor=#D4E1F5;fontColor=#003366" vertex="1" parent="1">
          <mxGeometry x="2930" y="-1050" width="205" height="80" as="geometry" />
        </mxCell>
        <mxCell id="mrB9wBL7-dre5j41DHhm-120" value="&lt;p style=&quot;margin: 0px; margin-top: 4px; text-align: center; text-decoration: underline;&quot;&gt;&lt;strong&gt;PayKeeper gateway&lt;br&gt;&lt;/strong&gt;&lt;/p&gt;" style="verticalAlign=top;align=left;overflow=fill;fontSize=12;fontFamily=Helvetica;html=1;strokeColor=#003366;shadow=1;fillColor=#D4E1F5;fontColor=#003366" vertex="1" parent="1">
          <mxGeometry x="2930" y="-1120" width="205" height="30" as="geometry" />
        </mxCell>
        <mxCell id="mrB9wBL7-dre5j41DHhm-122" value="&lt;p style=&quot;margin: 0px; margin-top: 4px; text-align: center; text-decoration: underline;&quot;&gt;&lt;strong&gt;PromotionService&lt;br&gt;&lt;/strong&gt;&lt;/p&gt;&lt;hr&gt;&lt;p style=&quot;margin: 0px; margin-left: 8px;&quot;&gt;Добавление сертификата&lt;/p&gt;&lt;p style=&quot;margin: 0px; margin-left: 8px;&quot;&gt;Добавление промокода&lt;br&gt;&lt;/p&gt;&lt;p style=&quot;margin: 0px; margin-left: 8px;&quot;&gt;Поиск промокода &lt;br&gt;&lt;/p&gt;&lt;p style=&quot;margin: 0px; margin-left: 8px;&quot;&gt;Обновление статуса промокода&lt;br&gt;&lt;/p&gt;&lt;p style=&quot;margin: 0px; margin-left: 8px;&quot;&gt;&lt;br&gt;&lt;/p&gt;" style="verticalAlign=top;align=left;overflow=fill;fontSize=12;fontFamily=Helvetica;html=1;strokeColor=#003366;shadow=1;fillColor=#D4E1F5;fontColor=#003366" vertex="1" parent="1">
          <mxGeometry x="2563.14" y="-723.12" width="215.88" height="186.25" as="geometry" />
        </mxCell>
        <mxCell id="mrB9wBL7-dre5j41DHhm-132" style="edgeStyle=orthogonalEdgeStyle;rounded=0;orthogonalLoop=1;jettySize=auto;html=1;startArrow=diamond;startFill=0;startSize=10;" edge="1" parent="1" source="mrB9wBL7-dre5j41DHhm-123" target="mrB9wBL7-dre5j41DHhm-124">
          <mxGeometry relative="1" as="geometry" />
        </mxCell>
        <mxCell id="mrB9wBL7-dre5j41DHhm-123" value="&lt;p style=&quot;margin: 0px; margin-top: 4px; text-align: center; text-decoration: underline;&quot;&gt;&lt;strong&gt;DiscountManager&lt;br&gt;&lt;/strong&gt;&lt;/p&gt;&lt;hr&gt;&lt;p style=&quot;margin: 0px; margin-left: 8px;&quot;&gt;Подсчет скидки&lt;br&gt;&lt;/p&gt;&lt;p style=&quot;margin: 0px; margin-left: 8px;&quot;&gt;Применение скидки&lt;br&gt;&lt;/p&gt;" style="verticalAlign=top;align=left;overflow=fill;fontSize=12;fontFamily=Helvetica;html=1;strokeColor=#003366;shadow=1;fillColor=#D4E1F5;fontColor=#003366" vertex="1" parent="1">
          <mxGeometry x="2991" y="-830" width="230" height="70" as="geometry" />
        </mxCell>
        <mxCell id="mrB9wBL7-dre5j41DHhm-129" style="edgeStyle=orthogonalEdgeStyle;rounded=0;orthogonalLoop=1;jettySize=auto;html=1;startArrow=diamond;startFill=0;strokeWidth=1;targetPerimeterSpacing=0;endSize=6;startSize=10;" edge="1" parent="1" source="mrB9wBL7-dre5j41DHhm-124" target="mrB9wBL7-dre5j41DHhm-125">
          <mxGeometry relative="1" as="geometry" />
        </mxCell>
        <mxCell id="mrB9wBL7-dre5j41DHhm-146" style="edgeStyle=orthogonalEdgeStyle;rounded=0;orthogonalLoop=1;jettySize=auto;html=1;" edge="1" parent="1" source="mrB9wBL7-dre5j41DHhm-124" target="mrB9wBL7-dre5j41DHhm-122">
          <mxGeometry relative="1" as="geometry">
            <Array as="points">
              <mxPoint x="2810" y="-685" />
              <mxPoint x="2810" y="-685" />
            </Array>
          </mxGeometry>
        </mxCell>
        <mxCell id="mrB9wBL7-dre5j41DHhm-147" value="&lt;font style=&quot;font-size: 15px;&quot;&gt;Поиск сертификатов&lt;/font&gt;" style="edgeLabel;html=1;align=center;verticalAlign=middle;resizable=0;points=[];" vertex="1" connectable="0" parent="mrB9wBL7-dre5j41DHhm-146">
          <mxGeometry x="0.0972" y="-3" relative="1" as="geometry">
            <mxPoint x="11" y="3" as="offset" />
          </mxGeometry>
        </mxCell>
        <mxCell id="mrB9wBL7-dre5j41DHhm-124" value="&lt;p style=&quot;margin: 0px; margin-top: 4px; text-align: center; text-decoration: underline;&quot;&gt;&lt;strong&gt;CertificateHandler&lt;br&gt;&lt;/strong&gt;&lt;/p&gt;&lt;hr&gt;&lt;p style=&quot;margin: 0px; margin-left: 8px;&quot;&gt;Подсчет суммы с учетом сертификата&lt;br&gt;&lt;/p&gt;&lt;p style=&quot;margin: 0px; margin-left: 8px;&quot;&gt;Применение скидки&lt;br&gt;&lt;/p&gt;" style="verticalAlign=top;align=left;overflow=fill;fontSize=12;fontFamily=Helvetica;html=1;strokeColor=#003366;shadow=1;fillColor=#D4E1F5;fontColor=#003366" vertex="1" parent="1">
          <mxGeometry x="2991" y="-720" width="230" height="70" as="geometry" />
        </mxCell>
        <mxCell id="mrB9wBL7-dre5j41DHhm-130" style="edgeStyle=orthogonalEdgeStyle;rounded=0;orthogonalLoop=1;jettySize=auto;html=1;startArrow=diamond;startFill=0;startSize=10;" edge="1" parent="1" source="mrB9wBL7-dre5j41DHhm-125" target="mrB9wBL7-dre5j41DHhm-126">
          <mxGeometry relative="1" as="geometry" />
        </mxCell>
        <mxCell id="mrB9wBL7-dre5j41DHhm-148" style="edgeStyle=orthogonalEdgeStyle;rounded=0;orthogonalLoop=1;jettySize=auto;html=1;" edge="1" parent="1" source="mrB9wBL7-dre5j41DHhm-125" target="mrB9wBL7-dre5j41DHhm-122">
          <mxGeometry relative="1" as="geometry">
            <Array as="points">
              <mxPoint x="2810" y="-575" />
              <mxPoint x="2810" y="-575" />
            </Array>
          </mxGeometry>
        </mxCell>
        <mxCell id="mrB9wBL7-dre5j41DHhm-149" value="&lt;font style=&quot;font-size: 15px;&quot;&gt;Поиск сертификатов&lt;/font&gt;" style="edgeLabel;html=1;align=center;verticalAlign=middle;resizable=0;points=[];" vertex="1" connectable="0" parent="mrB9wBL7-dre5j41DHhm-148">
          <mxGeometry x="-0.0234" y="4" relative="1" as="geometry">
            <mxPoint y="-4" as="offset" />
          </mxGeometry>
        </mxCell>
        <mxCell id="mrB9wBL7-dre5j41DHhm-125" value="&lt;p style=&quot;margin: 0px; margin-top: 4px; text-align: center; text-decoration: underline;&quot;&gt;&lt;strong&gt;PromocodeHandler&lt;br&gt;&lt;/strong&gt;&lt;/p&gt;&lt;hr&gt;&lt;p style=&quot;margin: 0px; margin-left: 8px;&quot;&gt;Подсчет суммы с учетом промокода&lt;br&gt;&lt;/p&gt;&lt;p style=&quot;margin: 0px; margin-left: 8px;&quot;&gt;Применение скидки&lt;br&gt;&lt;/p&gt;" style="verticalAlign=top;align=left;overflow=fill;fontSize=12;fontFamily=Helvetica;html=1;strokeColor=#003366;shadow=1;fillColor=#D4E1F5;fontColor=#003366" vertex="1" parent="1">
          <mxGeometry x="2991" y="-610" width="230" height="70" as="geometry" />
        </mxCell>
        <mxCell id="mrB9wBL7-dre5j41DHhm-131" style="edgeStyle=orthogonalEdgeStyle;rounded=0;orthogonalLoop=1;jettySize=auto;html=1;startSize=10;startArrow=diamond;startFill=0;" edge="1" parent="1" source="mrB9wBL7-dre5j41DHhm-126" target="mrB9wBL7-dre5j41DHhm-128">
          <mxGeometry relative="1" as="geometry" />
        </mxCell>
        <mxCell id="mrB9wBL7-dre5j41DHhm-126" value="&lt;p style=&quot;margin: 0px; margin-top: 4px; text-align: center; text-decoration: underline;&quot;&gt;&lt;strong&gt;GroupDiscountHandler&lt;br&gt;&lt;/strong&gt;&lt;/p&gt;&lt;hr&gt;&lt;p style=&quot;margin: 0px; margin-left: 8px;&quot;&gt;Подсчет суммы с учетом cкидки&amp;nbsp;&lt;/p&gt;&lt;p style=&quot;margin: 0px; margin-left: 8px;&quot;&gt;на бронирование для группы&lt;br&gt;&lt;/p&gt;&lt;p style=&quot;margin: 0px; margin-left: 8px;&quot;&gt;Применение скидки&lt;br&gt;&lt;/p&gt;" style="verticalAlign=top;align=left;overflow=fill;fontSize=12;fontFamily=Helvetica;html=1;strokeColor=#003366;shadow=1;fillColor=#D4E1F5;fontColor=#003366" vertex="1" parent="1">
          <mxGeometry x="2991" y="-500" width="230" height="80" as="geometry" />
        </mxCell>
        <mxCell id="mrB9wBL7-dre5j41DHhm-135" style="edgeStyle=orthogonalEdgeStyle;rounded=0;orthogonalLoop=1;jettySize=auto;html=1;dashed=1;" edge="1" parent="1" source="mrB9wBL7-dre5j41DHhm-128" target="mrB9wBL7-dre5j41DHhm-115">
          <mxGeometry relative="1" as="geometry" />
        </mxCell>
        <mxCell id="mrB9wBL7-dre5j41DHhm-139" value="&lt;div style=&quot;font-size: 15px;&quot;&gt;Поиск старых&amp;nbsp;&lt;/div&gt;&lt;div style=&quot;font-size: 15px;&quot;&gt;бронирований&lt;/div&gt;&lt;div style=&quot;font-size: 15px;&quot;&gt;по номеру телефона&lt;/div&gt;" style="edgeLabel;html=1;align=center;verticalAlign=middle;resizable=0;points=[];fontSize=15;" vertex="1" connectable="0" parent="mrB9wBL7-dre5j41DHhm-135">
          <mxGeometry x="-0.2118" y="-1" relative="1" as="geometry">
            <mxPoint x="-8" y="1" as="offset" />
          </mxGeometry>
        </mxCell>
        <mxCell id="mrB9wBL7-dre5j41DHhm-128" value="&lt;p style=&quot;margin: 0px; margin-top: 4px; text-align: center; text-decoration: underline;&quot;&gt;&lt;strong&gt;RepeatedBookingDiscountHandler&lt;br&gt;&lt;/strong&gt;&lt;/p&gt;&lt;hr&gt;&lt;p style=&quot;margin: 0px; margin-left: 8px;&quot;&gt;Подсчет суммы с учетом cкидки&amp;nbsp;&lt;/p&gt;&lt;p style=&quot;margin: 0px; margin-left: 8px;&quot;&gt;на повторное бронирование&lt;br&gt;&lt;/p&gt;&lt;p style=&quot;margin: 0px; margin-left: 8px;&quot;&gt;Применение скидки&lt;br&gt;&lt;/p&gt;" style="verticalAlign=top;align=left;overflow=fill;fontSize=12;fontFamily=Helvetica;html=1;strokeColor=#003366;shadow=1;fillColor=#D4E1F5;fontColor=#003366" vertex="1" parent="1">
          <mxGeometry x="2991" y="-380" width="230" height="80" as="geometry" />
        </mxCell>
        <mxCell id="mrB9wBL7-dre5j41DHhm-155" style="edgeStyle=orthogonalEdgeStyle;rounded=0;orthogonalLoop=1;jettySize=auto;html=1;dashed=1;" edge="1" parent="1" source="mrB9wBL7-dre5j41DHhm-145" target="mrB9wBL7-dre5j41DHhm-118">
          <mxGeometry relative="1" as="geometry">
            <Array as="points">
              <mxPoint x="2335" y="-900" />
            </Array>
          </mxGeometry>
        </mxCell>
        <mxCell id="mrB9wBL7-dre5j41DHhm-167" value="&lt;p style=&quot;margin: 0px 0px 0px 8px; font-size: 15px;&quot;&gt;Обновление&amp;nbsp;&lt;/p&gt;&lt;p style=&quot;margin: 0px 0px 0px 8px; font-size: 15px;&quot;&gt;статуса инвойса&lt;/p&gt;" style="edgeLabel;html=1;align=center;verticalAlign=middle;resizable=0;points=[];fontSize=15;" vertex="1" connectable="0" parent="mrB9wBL7-dre5j41DHhm-155">
          <mxGeometry x="0.4682" y="3" relative="1" as="geometry">
            <mxPoint x="-116" y="73" as="offset" />
          </mxGeometry>
        </mxCell>
        <mxCell id="mrB9wBL7-dre5j41DHhm-156" style="edgeStyle=orthogonalEdgeStyle;rounded=0;orthogonalLoop=1;jettySize=auto;html=1;dashed=1;" edge="1" parent="1" source="mrB9wBL7-dre5j41DHhm-145" target="mrB9wBL7-dre5j41DHhm-115">
          <mxGeometry relative="1" as="geometry">
            <Array as="points">
              <mxPoint x="2380" y="-320" />
            </Array>
          </mxGeometry>
        </mxCell>
        <mxCell id="mrB9wBL7-dre5j41DHhm-166" value="&lt;p style=&quot;margin: 0px 0px 0px 8px; font-size: 15px;&quot;&gt;Обновление&amp;nbsp;&lt;/p&gt;&lt;p style=&quot;margin: 0px 0px 0px 8px; font-size: 15px;&quot;&gt;статуса бронирования&lt;/p&gt;" style="edgeLabel;html=1;align=center;verticalAlign=middle;resizable=0;points=[];fontSize=15;" vertex="1" connectable="0" parent="mrB9wBL7-dre5j41DHhm-156">
          <mxGeometry x="-0.459" relative="1" as="geometry">
            <mxPoint x="15" y="55" as="offset" />
          </mxGeometry>
        </mxCell>
        <mxCell id="mrB9wBL7-dre5j41DHhm-157" style="edgeStyle=orthogonalEdgeStyle;rounded=0;orthogonalLoop=1;jettySize=auto;html=1;dashed=1;" edge="1" parent="1" source="mrB9wBL7-dre5j41DHhm-145" target="mrB9wBL7-dre5j41DHhm-122">
          <mxGeometry relative="1" as="geometry" />
        </mxCell>
        <mxCell id="mrB9wBL7-dre5j41DHhm-168" value="&lt;p style=&quot;margin: 0px 0px 0px 8px; font-size: 15px;&quot;&gt;&lt;font style=&quot;font-size: 15px;&quot;&gt;Обновление&amp;nbsp;&lt;/font&gt;&lt;/p&gt;&lt;p style=&quot;margin: 0px 0px 0px 8px; font-size: 15px;&quot;&gt;&lt;font style=&quot;font-size: 15px;&quot;&gt;статуса&amp;nbsp;&lt;/font&gt;&lt;/p&gt;&lt;p style=&quot;margin: 0px 0px 0px 8px; font-size: 15px;&quot;&gt;&lt;font style=&quot;font-size: 15px;&quot;&gt;промокода&lt;/font&gt;&lt;/p&gt;" style="edgeLabel;html=1;align=center;verticalAlign=middle;resizable=0;points=[];fontSize=15;" vertex="1" connectable="0" parent="mrB9wBL7-dre5j41DHhm-157">
          <mxGeometry x="-0.2468" y="-3" relative="1" as="geometry">
            <mxPoint x="7" y="-1" as="offset" />
          </mxGeometry>
        </mxCell>
        <mxCell id="mrB9wBL7-dre5j41DHhm-162" style="edgeStyle=orthogonalEdgeStyle;rounded=0;orthogonalLoop=1;jettySize=auto;html=1;dashed=1;" edge="1" parent="1" source="mrB9wBL7-dre5j41DHhm-145" target="mrB9wBL7-dre5j41DHhm-161">
          <mxGeometry relative="1" as="geometry">
            <Array as="points">
              <mxPoint x="2280" y="-60" />
            </Array>
          </mxGeometry>
        </mxCell>
        <mxCell id="mrB9wBL7-dre5j41DHhm-165" value="&lt;p style=&quot;margin: 0px 0px 0px 8px; font-size: 15px;&quot;&gt;Обновление статуса прогулок&lt;/p&gt;" style="edgeLabel;html=1;align=center;verticalAlign=middle;resizable=0;points=[];" vertex="1" connectable="0" parent="mrB9wBL7-dre5j41DHhm-162">
          <mxGeometry x="-0.025" y="-1" relative="1" as="geometry">
            <mxPoint as="offset" />
          </mxGeometry>
        </mxCell>
        <mxCell id="mrB9wBL7-dre5j41DHhm-181" style="edgeStyle=orthogonalEdgeStyle;rounded=0;orthogonalLoop=1;jettySize=auto;html=1;dashed=1;" edge="1" parent="1" source="mrB9wBL7-dre5j41DHhm-145" target="mrB9wBL7-dre5j41DHhm-176">
          <mxGeometry relative="1" as="geometry">
            <Array as="points">
              <mxPoint x="2230" y="-320" />
            </Array>
          </mxGeometry>
        </mxCell>
        <mxCell id="mrB9wBL7-dre5j41DHhm-182" value="&lt;font style=&quot;font-size: 15px;&quot;&gt;Отправка уведомления&lt;/font&gt;" style="edgeLabel;html=1;align=center;verticalAlign=middle;resizable=0;points=[];" vertex="1" connectable="0" parent="mrB9wBL7-dre5j41DHhm-181">
          <mxGeometry x="0.4833" y="4" relative="1" as="geometry">
            <mxPoint x="-2" y="-174" as="offset" />
          </mxGeometry>
        </mxCell>
        <mxCell id="mrB9wBL7-dre5j41DHhm-145" value="&lt;p style=&quot;margin: 0px; margin-top: 4px; text-align: center; text-decoration: underline;&quot;&gt;&lt;strong&gt;Scheduler&lt;/strong&gt;&lt;/p&gt;&lt;hr&gt;&lt;p style=&quot;margin: 0px; margin-left: 8px;&quot;&gt;Обновление статуса бронирования&lt;br&gt;&lt;/p&gt;&lt;p style=&quot;margin: 0px; margin-left: 8px;&quot;&gt;Обновление статуса инвойса&lt;/p&gt;&lt;p style=&quot;margin: 0px; margin-left: 8px;&quot;&gt;Обновление статуса промокода&lt;/p&gt;&lt;p style=&quot;margin: 0px; margin-left: 8px;&quot;&gt;Обновление статуса прогулки&lt;/p&gt;" style="verticalAlign=top;align=left;overflow=fill;fontSize=12;fontFamily=Helvetica;html=1;strokeColor=#003366;shadow=1;fillColor=#D4E1F5;fontColor=#003366" vertex="1" parent="1">
          <mxGeometry x="2190" y="-723.12" width="230" height="183.12" as="geometry" />
        </mxCell>
        <mxCell id="mrB9wBL7-dre5j41DHhm-158" value="&lt;p style=&quot;margin: 0px; margin-top: 4px; text-align: center; text-decoration: underline;&quot;&gt;&lt;strong&gt;ClientService&lt;br&gt;&lt;/strong&gt;&lt;/p&gt;&lt;hr&gt;&lt;p style=&quot;margin: 0px; margin-left: 8px;&quot;&gt;Добавление новых клиентов&lt;br&gt;&lt;/p&gt;&lt;p style=&quot;margin: 0px; margin-left: 8px;&quot;&gt;Поиск старых клиентов&lt;br&gt;&lt;/p&gt;" style="verticalAlign=top;align=left;overflow=fill;fontSize=12;fontFamily=Helvetica;html=1;strokeColor=#003366;shadow=1;fillColor=#D4E1F5;fontColor=#003366" vertex="1" parent="1">
          <mxGeometry x="2960" y="-230" width="220" height="105" as="geometry" />
        </mxCell>
        <mxCell id="mrB9wBL7-dre5j41DHhm-170" style="edgeStyle=orthogonalEdgeStyle;rounded=0;orthogonalLoop=1;jettySize=auto;html=1;dashed=1;" edge="1" parent="1" source="mrB9wBL7-dre5j41DHhm-161" target="mrB9wBL7-dre5j41DHhm-169">
          <mxGeometry relative="1" as="geometry">
            <Array as="points">
              <mxPoint x="2810" y="-20" />
              <mxPoint x="2810" y="-20" />
            </Array>
          </mxGeometry>
        </mxCell>
        <mxCell id="mrB9wBL7-dre5j41DHhm-171" value="Поиск маршрутов" style="edgeLabel;html=1;align=center;verticalAlign=middle;resizable=0;points=[];fontSize=15;" vertex="1" connectable="0" parent="mrB9wBL7-dre5j41DHhm-170">
          <mxGeometry x="0.1464" y="4" relative="1" as="geometry">
            <mxPoint x="-18" y="4" as="offset" />
          </mxGeometry>
        </mxCell>
        <mxCell id="mrB9wBL7-dre5j41DHhm-174" style="edgeStyle=orthogonalEdgeStyle;rounded=0;orthogonalLoop=1;jettySize=auto;html=1;entryX=0;entryY=0.5;entryDx=0;entryDy=0;" edge="1" parent="1" source="mrB9wBL7-dre5j41DHhm-161" target="mrB9wBL7-dre5j41DHhm-173">
          <mxGeometry relative="1" as="geometry">
            <Array as="points">
              <mxPoint x="2670" y="150" />
            </Array>
          </mxGeometry>
        </mxCell>
        <mxCell id="mrB9wBL7-dre5j41DHhm-175" value="&lt;font style=&quot;font-size: 15px;&quot;&gt;Поиск работников&lt;/font&gt;" style="edgeLabel;html=1;align=center;verticalAlign=middle;resizable=0;points=[];" vertex="1" connectable="0" parent="mrB9wBL7-dre5j41DHhm-174">
          <mxGeometry x="0.3515" y="-6" relative="1" as="geometry">
            <mxPoint y="-6" as="offset" />
          </mxGeometry>
        </mxCell>
        <mxCell id="mrB9wBL7-dre5j41DHhm-161" value="&lt;p style=&quot;margin: 0px; margin-top: 4px; text-align: center; text-decoration: underline;&quot;&gt;&lt;strong&gt;WalkService&lt;br&gt;&lt;/strong&gt;&lt;/p&gt;&lt;hr&gt;&lt;p style=&quot;margin: 0px; margin-left: 8px;&quot;&gt;Добавление новых прогулок&lt;/p&gt;&lt;p style=&quot;margin: 0px; margin-left: 8px;&quot;&gt;Обновление статуса прогулок&lt;/p&gt;&lt;p style=&quot;margin: 0px; margin-left: 8px;&quot;&gt;Обновление числа доступных мест&lt;br&gt;&lt;/p&gt;&lt;p style=&quot;margin: 0px; margin-left: 8px;&quot;&gt;Поиск прогулок&lt;br&gt;&lt;/p&gt;" style="verticalAlign=top;align=left;overflow=fill;fontSize=12;fontFamily=Helvetica;html=1;strokeColor=#003366;shadow=1;fillColor=#D4E1F5;fontColor=#003366" vertex="1" parent="1">
          <mxGeometry x="2560" y="-150" width="220" height="190" as="geometry" />
        </mxCell>
        <mxCell id="mrB9wBL7-dre5j41DHhm-169" value="&lt;p style=&quot;margin: 0px; margin-top: 4px; text-align: center; text-decoration: underline;&quot;&gt;&lt;strong&gt;RouteService&lt;br&gt;&lt;/strong&gt;&lt;/p&gt;&lt;hr&gt;&lt;p style=&quot;margin: 0px; margin-left: 8px;&quot;&gt;Добавление новых маршрутов&lt;br&gt;&lt;/p&gt;&lt;p style=&quot;margin: 0px; margin-left: 8px;&quot;&gt;Поиск маршрутов&lt;br&gt;&lt;/p&gt;" style="verticalAlign=top;align=left;overflow=fill;fontSize=12;fontFamily=Helvetica;html=1;strokeColor=#003366;shadow=1;fillColor=#D4E1F5;fontColor=#003366" vertex="1" parent="1">
          <mxGeometry x="2960" y="-80" width="220" height="120" as="geometry" />
        </mxCell>
        <mxCell id="mrB9wBL7-dre5j41DHhm-173" value="&lt;p style=&quot;margin: 0px; margin-top: 4px; text-align: center; text-decoration: underline;&quot;&gt;&lt;strong&gt;EmployeeService&lt;br&gt;&lt;/strong&gt;&lt;/p&gt;&lt;hr&gt;&lt;p style=&quot;margin: 0px; margin-left: 8px;&quot;&gt;Добавление новых работников&lt;br&gt;&lt;/p&gt;&lt;p style=&quot;margin: 0px; margin-left: 8px;&quot;&gt;Поиск работников&lt;br&gt;&lt;/p&gt;" style="verticalAlign=top;align=left;overflow=fill;fontSize=12;fontFamily=Helvetica;html=1;strokeColor=#003366;shadow=1;fillColor=#D4E1F5;fontColor=#003366" vertex="1" parent="1">
          <mxGeometry x="2960" y="90" width="220" height="120" as="geometry" />
        </mxCell>
        <mxCell id="mrB9wBL7-dre5j41DHhm-179" style="edgeStyle=orthogonalEdgeStyle;rounded=0;orthogonalLoop=1;jettySize=auto;html=1;dashed=1;" edge="1" parent="1" source="mrB9wBL7-dre5j41DHhm-176" target="mrB9wBL7-dre5j41DHhm-178">
          <mxGeometry relative="1" as="geometry">
            <Array as="points">
              <mxPoint x="2060" y="-515" />
            </Array>
          </mxGeometry>
        </mxCell>
        <mxCell id="mrB9wBL7-dre5j41DHhm-180" style="edgeStyle=orthogonalEdgeStyle;rounded=0;orthogonalLoop=1;jettySize=auto;html=1;dashed=1;" edge="1" parent="1" source="mrB9wBL7-dre5j41DHhm-176" target="mrB9wBL7-dre5j41DHhm-177">
          <mxGeometry relative="1" as="geometry">
            <Array as="points">
              <mxPoint x="2080" y="-585" />
            </Array>
          </mxGeometry>
        </mxCell>
        <mxCell id="mrB9wBL7-dre5j41DHhm-176" value="&lt;p style=&quot;margin: 0px; margin-top: 4px; text-align: center; text-decoration: underline;&quot;&gt;&lt;strong&gt;NotificationService&lt;br&gt;&lt;/strong&gt;&lt;/p&gt;&lt;hr&gt;&lt;p style=&quot;margin: 0px; margin-left: 8px;&quot;&gt;Отправить уведомление о изменении&amp;nbsp;&lt;/p&gt;&lt;p style=&quot;margin: 0px; margin-left: 8px;&quot;&gt;статуса бронирования&lt;br&gt;&lt;/p&gt;&lt;p style=&quot;margin: 0px; margin-left: 8px;&quot;&gt;Отправить напоминание о прогулке&lt;br&gt;&lt;/p&gt;&lt;p style=&quot;margin: 0px; margin-left: 8px;&quot;&gt;&lt;br&gt;&lt;/p&gt;" style="verticalAlign=top;align=left;overflow=fill;fontSize=12;fontFamily=Helvetica;html=1;strokeColor=#003366;shadow=1;fillColor=#D4E1F5;fontColor=#003366" vertex="1" parent="1">
          <mxGeometry x="1900" y="-435" width="230" height="190" as="geometry" />
        </mxCell>
        <mxCell id="mrB9wBL7-dre5j41DHhm-177" value="&lt;p style=&quot;margin: 0px; margin-top: 4px; text-align: center; text-decoration: underline;&quot;&gt;&lt;strong&gt;SmsGateway&lt;br&gt;&lt;/strong&gt;&lt;/p&gt;" style="verticalAlign=top;align=left;overflow=fill;fontSize=12;fontFamily=Helvetica;html=1;strokeColor=#003366;shadow=1;fillColor=#D4E1F5;fontColor=#003366" vertex="1" parent="1">
          <mxGeometry x="1900" y="-600" width="135" height="30" as="geometry" />
        </mxCell>
        <mxCell id="mrB9wBL7-dre5j41DHhm-178" value="&lt;p style=&quot;margin: 0px; margin-top: 4px; text-align: center; text-decoration: underline;&quot;&gt;&lt;strong&gt;EmailGateway&lt;br&gt;&lt;/strong&gt;&lt;/p&gt;" style="verticalAlign=top;align=left;overflow=fill;fontSize=12;fontFamily=Helvetica;html=1;strokeColor=#003366;shadow=1;fillColor=#D4E1F5;fontColor=#003366" vertex="1" parent="1">
          <mxGeometry x="1900" y="-530" width="135" height="30" as="geometry" />
        </mxCell>
      </root>
    </mxGraphModel>
  </diagram>
</mxfile>
